<svg xmlns="http://www.w3.org/2000/svg" version="1.1" xmlns:xlink="http://www.w3.org/1999/xlink" xmlns:svgjs="http://svgjs.dev/svgjs" viewBox="0 0 8.99835726299512 1.7251225482387"><g transform="matrix(1,0,0,1,1.9007266708478698,0.3315612741193501)"><rect width="8.99835726299512" height="8.99835726299512" x="-1.9007266708478703" y="-3.96817863149756" fill="#ffffff"></rect><g><path d=" M 0.8535 -2.220446049250313e-16 Q 0.8475 0.06599999999999984 0.8452500000000001 0.12749999999999984 Q 0.843 0.18899999999999983 0.843 0.22199999999999986 Q 0.843 0.2519999999999998 0.8445 0.2789999999999998 Q 0.846 0.3059999999999998 0.8475 0.32399999999999984 L 0.8130000000000001 0.32399999999999984 Q 0.798 0.2144999999999998 0.7665000000000001 0.15074999999999983 Q 0.735 0.08699999999999986 0.68475 0.06074999999999986 Q 0.6345000000000001 0.03449999999999975 0.5670000000000001 0.03449999999999975 L 0.5055000000000001 0.03449999999999975 Q 0.4605 0.03449999999999975 0.43875000000000003 0.041999999999999815 Q 0.417 0.04949999999999988 0.40950000000000003 0.07124999999999981 Q 0.402 0.09299999999999986 0.402 0.1409999999999998 L 0.402 0.9209999999999998 Q 0.402 0.9674999999999998 0.40950000000000003 0.9899999999999998 Q 0.417 1.0124999999999997 0.43875000000000003 1.0199999999999998 Q 0.4605 1.0274999999999999 0.5055000000000001 1.0274999999999999 L 0.579 1.0274999999999999 Q 0.6465 1.0274999999999999 0.69825 0.9982499999999999 Q 0.75 0.9689999999999999 0.7867500000000001 0.8984999999999999 Q 0.8235 0.8279999999999998 0.843 0.7079999999999999 L 0.8775000000000001 0.7079999999999999 Q 0.873 0.7559999999999998 0.873 0.8339999999999999 Q 0.873 0.8684999999999998 0.8745 0.9314999999999998 Q 0.876 0.9944999999999998 0.8835000000000001 1.0619999999999998 Q 0.807 1.059 0.711 1.05825 Q 0.615 1.0574999999999999 0.54 1.0574999999999999 Q 0.489 1.0574999999999999 0.405 1.0574999999999999 Q 0.321 1.0574999999999999 0.2265 1.05825 Q 0.132 1.059 0.051000000000000004 1.0619999999999998 L 0.051000000000000004 1.0319999999999998 Q 0.099 1.029 0.123 1.0199999999999998 Q 0.147 1.011 0.15525 0.9839999999999999 Q 0.1635 0.9569999999999999 0.1635 0.9029999999999998 L 0.1635 0.1589999999999998 Q 0.1635 0.10349999999999981 0.15525 0.07724999999999982 Q 0.147 0.05099999999999971 0.12225 0.04124999999999979 Q 0.0975 0.03149999999999986 0.051000000000000004 0.029999999999999805 L 0.051000000000000004 -2.220446049250313e-16 Q 0.132 0.0014999999999998348 0.2265 0.0029999999999998916 Q 0.321 0.0044999999999997264 0.405 0.0044999999999997264 Q 0.489 0.0044999999999997264 0.54 0.0044999999999997264 Q 0.609 0.0044999999999997264 0.69675 0.00374999999999992 Q 0.7845 0.0029999999999998916 0.8535 -2.220446049250313e-16 M 0.6195 0.5129999999999998 Q 0.6195 0.5129999999999998 0.6195 0.5279999999999998 Q 0.6195 0.5429999999999998 0.6195 0.5429999999999998 L 0.357 0.5429999999999998 Q 0.357 0.5429999999999998 0.357 0.5279999999999998 Q 0.357 0.5129999999999998 0.357 0.5129999999999998 L 0.6195 0.5129999999999998 M 0.663 0.31499999999999984 Q 0.657 0.40049999999999986 0.6577500000000001 0.4454999999999998 Q 0.6585 0.4904999999999998 0.6585 0.5279999999999998 Q 0.6585 0.5654999999999999 0.66 0.6104999999999998 Q 0.6615 0.6554999999999997 0.6675 0.7409999999999999 L 0.633 0.7409999999999999 Q 0.6255000000000001 0.6884999999999999 0.6052500000000001 0.6434999999999998 Q 0.585 0.5984999999999998 0.5475 0.5707499999999999 Q 0.51 0.5429999999999998 0.45 0.5429999999999998 L 0.45 0.5129999999999998 Q 0.51 0.5129999999999998 0.546 0.47999999999999987 Q 0.582 0.44699999999999984 0.6015 0.4012499999999998 Q 0.621 0.3554999999999998 0.6285000000000001 0.31499999999999984 L 0.663 0.31499999999999984 M 1.468458251953125 -2.220446049250313e-16 Q 1.7639582519531252 -2.220446049250313e-16 1.907958251953125 0.13424999999999976 Q 2.051958251953125 0.26849999999999985 2.051958251953125 0.5189999999999998 Q 2.051958251953125 0.6824999999999999 1.981458251953125 0.8047499999999999 Q 1.910958251953125 0.9269999999999998 1.776708251953125 0.9944999999999998 Q 1.642458251953125 1.0619999999999998 1.454958251953125 1.0619999999999998 Q 1.418958251953125 1.0619999999999998 1.352208251953125 1.0597499999999997 Q 1.285458251953125 1.0574999999999999 1.2359582519531251 1.0574999999999999 Q 1.169958251953125 1.0574999999999999 1.106208251953125 1.05825 Q 1.042458251953125 1.059 1.004958251953125 1.0619999999999998 L 1.004958251953125 1.0319999999999998 Q 1.052958251953125 1.029 1.076958251953125 1.0199999999999998 Q 1.100958251953125 1.011 1.109208251953125 0.9839999999999999 Q 1.117458251953125 0.9569999999999999 1.117458251953125 0.9029999999999998 L 1.117458251953125 0.1589999999999998 Q 1.117458251953125 0.10349999999999981 1.109208251953125 0.07724999999999982 Q 1.100958251953125 0.05099999999999971 1.076208251953125 0.04124999999999979 Q 1.051458251953125 0.03149999999999986 1.004958251953125 0.029999999999999805 L 1.004958251953125 -2.220446049250313e-16 Q 1.042458251953125 0.0014999999999998348 1.106208251953125 0.00374999999999992 Q 1.169958251953125 0.005999999999999783 1.232958251953125 0.0044999999999997264 Q 1.286958251953125 0.0029999999999998916 1.355208251953125 0.0014999999999998348 Q 1.4234582519531251 -2.220446049250313e-16 1.468458251953125 -2.220446049250313e-16 M 1.466958251953125 0.026999999999999913 Q 1.397958251953125 0.026999999999999913 1.376958251953125 0.05249999999999977 Q 1.355958251953125 0.07799999999999985 1.355958251953125 0.1559999999999998 L 1.355958251953125 0.9059999999999998 Q 1.355958251953125 0.9839999999999999 1.377708251953125 1.0094999999999998 Q 1.3994582519531251 1.035 1.468458251953125 1.035 Q 1.594458251953125 1.035 1.667208251953125 0.9757499999999998 Q 1.7399582519531251 0.9164999999999999 1.771458251953125 0.8024999999999998 Q 1.8029582519531249 0.6884999999999999 1.8029582519531249 0.5249999999999998 Q 1.8029582519531249 0.2729999999999998 1.724958251953125 0.1499999999999998 Q 1.6469582519531252 0.026999999999999913 1.466958251953125 0.026999999999999913 M 3.118487548828125 -2.220446049250313e-16 L 3.118487548828125 0.029999999999999805 Q 3.070487548828125 0.03599999999999981 3.045737548828125 0.054749999999999854 Q 3.020987548828125 0.07349999999999979 3.013487548828125 0.11399999999999977 Q 3.0059875488281254 0.15449999999999986 3.0059875488281254 0.22799999999999987 L 3.0059875488281254 0.6254999999999998 Q 3.0059875488281254 0.7229999999999999 2.9924875488281253 0.8039999999999998 Q 2.978987548828125 0.8849999999999998 2.9444875488281252 0.9434999999999998 Q 2.905487548828125 1.0079999999999998 2.8304875488281254 1.0454999999999999 Q 2.755487548828125 1.0829999999999997 2.6399875488281253 1.0829999999999997 Q 2.5709875488281253 1.0829999999999997 2.4989875488281252 1.0672499999999998 Q 2.426987548828125 1.0514999999999999 2.3699875488281252 1.0079999999999998 Q 2.321987548828125 0.9674999999999998 2.296487548828125 0.9164999999999999 Q 2.270987548828125 0.8654999999999998 2.261987548828125 0.7957499999999998 Q 2.2529875488281252 0.7259999999999998 2.2529875488281252 0.6299999999999999 L 2.2529875488281252 0.1589999999999998 Q 2.2529875488281252 0.10349999999999981 2.2447375488281254 0.07724999999999982 Q 2.236487548828125 0.05099999999999971 2.212487548828125 0.04124999999999979 Q 2.188487548828125 0.03149999999999986 2.1404875488281254 0.029999999999999805 L 2.1404875488281254 -2.220446049250313e-16 Q 2.177987548828125 0.0014999999999998348 2.2417375488281253 0.0029999999999998916 Q 2.3054875488281255 0.0044999999999997264 2.3744875488281254 0.0044999999999997264 Q 2.4434875488281254 0.0044999999999997264 2.507237548828125 0.0029999999999998916 Q 2.5709875488281253 0.0014999999999998348 2.612987548828125 -2.220446049250313e-16 L 2.612987548828125 0.029999999999999805 Q 2.5619875488281254 0.03149999999999986 2.5357375488281253 0.04124999999999979 Q 2.509487548828125 0.05099999999999971 2.5004875488281253 0.07724999999999982 Q 2.4914875488281254 0.10349999999999981 2.4914875488281254 0.1589999999999998 L 2.4914875488281254 0.7244999999999998 Q 2.4914875488281254 0.8249999999999998 2.509487548828125 0.8932499999999999 Q 2.5274875488281254 0.9614999999999998 2.5732375488281254 0.9959999999999998 Q 2.6189875488281253 1.0304999999999997 2.6984875488281252 1.0304999999999997 Q 2.8034875488281252 1.0304999999999997 2.8627375488281253 0.9809999999999999 Q 2.9219875488281253 0.9314999999999998 2.9467375488281253 0.8437499999999998 Q 2.9714875488281254 0.7559999999999998 2.9714875488281254 0.6419999999999999 L 2.9714875488281254 0.24599999999999977 Q 2.9714875488281254 0.16349999999999987 2.9609875488281254 0.11924999999999986 Q 2.950487548828125 0.07499999999999984 2.919737548828125 0.05549999999999988 Q 2.8889875488281254 0.03599999999999981 2.825987548828125 0.029999999999999805 L 2.825987548828125 -2.220446049250313e-16 Q 2.8544875488281254 0.0014999999999998348 2.9009875488281254 0.0029999999999998916 Q 2.9474875488281254 0.0044999999999997264 2.987987548828125 0.0044999999999997264 Q 3.023987548828125 0.0044999999999997264 3.059237548828125 0.0029999999999998916 Q 3.094487548828125 0.0014999999999998348 3.118487548828125 -2.220446049250313e-16 M 3.6720263671875 -2.220446049250313e-16 L 3.6720263671875 0.029999999999999805 Q 3.6210263671875005 0.03149999999999986 3.5947763671875004 0.04124999999999979 Q 3.5685263671875003 0.05099999999999971 3.5595263671875004 0.07724999999999982 Q 3.5505263671875005 0.10349999999999981 3.5505263671875005 0.1589999999999998 L 3.5505263671875005 0.9209999999999998 Q 3.5505263671875005 0.9674999999999998 3.5572763671875003 0.9899999999999998 Q 3.5640263671875005 1.0124999999999997 3.5842763671875004 1.0199999999999998 Q 3.6045263671875003 1.0274999999999999 3.6450263671875005 1.0274999999999999 L 3.7185263671875006 1.0274999999999999 Q 3.7875263671875006 1.0274999999999999 3.8437763671875005 0.9854999999999998 Q 3.9000263671875004 0.9434999999999998 3.9382763671875005 0.8677499999999998 Q 3.9765263671875006 0.7919999999999998 3.9915263671875003 0.6929999999999998 L 4.026026367187501 0.6929999999999998 Q 4.021526367187501 0.7439999999999998 4.021526367187501 0.8249999999999998 Q 4.021526367187501 0.8594999999999998 4.023026367187501 0.9254999999999998 Q 4.024526367187501 0.9914999999999998 4.0320263671875 1.0619999999999998 Q 3.9555263671875003 1.059 3.8595263671875 1.05825 Q 3.7635263671875006 1.0574999999999999 3.6885263671875004 1.0574999999999999 Q 3.6375263671875 1.0574999999999999 3.5535263671875006 1.0574999999999999 Q 3.4695263671875005 1.0574999999999999 3.3750263671875005 1.05825 Q 3.2805263671875005 1.059 3.1995263671875005 1.0619999999999998 L 3.1995263671875005 1.0319999999999998 Q 3.2475263671875005 1.029 3.2715263671875006 1.0199999999999998 Q 3.2955263671875 1.011 3.3037763671875005 0.9839999999999999 Q 3.3120263671875003 0.9569999999999999 3.3120263671875003 0.9029999999999998 L 3.3120263671875003 0.1589999999999998 Q 3.3120263671875003 0.10349999999999981 3.3037763671875005 0.07724999999999982 Q 3.2955263671875 0.05099999999999971 3.2707763671875005 0.04124999999999979 Q 3.2460263671875005 0.03149999999999986 3.1995263671875005 0.029999999999999805 L 3.1995263671875005 -2.220446049250313e-16 Q 3.2370263671875 0.0014999999999998348 3.3007763671875003 0.0029999999999998916 Q 3.3645263671875005 0.0044999999999997264 3.4365263671875006 0.0044999999999997264 Q 3.5025263671875004 0.0044999999999997264 3.5662763671875 0.0029999999999998916 Q 3.6300263671875004 0.0014999999999998348 3.6720263671875 -2.220446049250313e-16 M 4.582560791015625 -2.220446049250313e-16 L 4.582560791015625 0.029999999999999805 Q 4.534560791015625 0.03149999999999986 4.509810791015625 0.04124999999999979 Q 4.485060791015625 0.05099999999999971 4.477560791015626 0.07724999999999982 Q 4.470060791015626 0.10349999999999981 4.470060791015626 0.1589999999999998 L 4.470060791015626 0.9029999999999998 Q 4.470060791015626 0.9569999999999999 4.478310791015625 0.9839999999999999 Q 4.486560791015625 1.011 4.510560791015625 1.0199999999999998 Q 4.534560791015625 1.029 4.582560791015625 1.0319999999999998 L 4.582560791015625 1.0619999999999998 Q 4.542060791015626 1.059 4.480560791015625 1.05825 Q 4.419060791015625 1.0574999999999999 4.356060791015626 1.0574999999999999 Q 4.282560791015626 1.0574999999999999 4.220310791015626 1.05825 Q 4.158060791015625 1.059 4.119060791015626 1.0619999999999998 L 4.119060791015626 1.0319999999999998 Q 4.167060791015626 1.029 4.191060791015626 1.0199999999999998 Q 4.215060791015626 1.011 4.223310791015625 0.9839999999999999 Q 4.231560791015625 0.9569999999999999 4.231560791015625 0.9029999999999998 L 4.231560791015625 0.1589999999999998 Q 4.231560791015625 0.10349999999999981 4.223310791015625 0.07724999999999982 Q 4.215060791015626 0.05099999999999971 4.190310791015626 0.04124999999999979 Q 4.165560791015626 0.03149999999999986 4.119060791015626 0.029999999999999805 L 4.119060791015626 -2.220446049250313e-16 Q 4.158060791015625 0.0014999999999998348 4.220310791015626 0.0029999999999998916 Q 4.282560791015626 0.0044999999999997264 4.356060791015626 0.0044999999999997264 Q 4.419060791015625 0.0044999999999997264 4.480560791015625 0.0029999999999998916 Q 4.542060791015626 0.0014999999999998348 4.582560791015625 -2.220446049250313e-16 M 5.674525634765626 -2.220446049250313e-16 L 5.674525634765626 0.029999999999999805 Q 5.626525634765626 0.03599999999999981 5.602525634765626 0.054749999999999854 Q 5.578525634765626 0.07349999999999979 5.5702756347656255 0.11399999999999977 Q 5.562025634765625 0.15449999999999986 5.562025634765625 0.22799999999999987 L 5.562025634765625 1.0649999999999997 Q 5.544025634765625 1.0635 5.5252756347656256 1.0635 Q 5.506525634765626 1.0635 5.485525634765626 1.0649999999999997 L 4.834525634765626 0.23999999999999977 L 4.834525634765626 0.8159999999999998 Q 4.834525634765626 0.8984999999999999 4.8435256347656255 0.9427499999999999 Q 4.852525634765626 0.9869999999999999 4.883275634765625 1.00575 Q 4.9140256347656255 1.0244999999999997 4.980025634765625 1.0319999999999998 L 4.980025634765625 1.0619999999999998 Q 4.951525634765625 1.059 4.905025634765625 1.05825 Q 4.858525634765625 1.0574999999999999 4.818025634765625 1.0574999999999999 Q 4.783525634765626 1.0574999999999999 4.747525634765625 1.05825 Q 4.711525634765626 1.059 4.687525634765626 1.0619999999999998 L 4.687525634765626 1.0319999999999998 Q 4.735525634765626 1.0244999999999997 4.759525634765626 1.0064999999999997 Q 4.783525634765626 0.9884999999999998 4.791775634765625 0.9472499999999998 Q 4.800025634765626 0.9059999999999998 4.800025634765626 0.8339999999999999 L 4.800025634765626 0.1589999999999998 Q 4.800025634765626 0.10349999999999981 4.791775634765625 0.07724999999999982 Q 4.783525634765626 0.05099999999999971 4.758775634765626 0.04124999999999979 Q 4.734025634765626 0.03149999999999986 4.687525634765626 0.029999999999999805 L 4.687525634765626 -2.220446049250313e-16 Q 4.711525634765626 0.0014999999999998348 4.747525634765625 0.0029999999999998916 Q 4.783525634765626 0.0044999999999997264 4.818025634765625 0.0044999999999997264 Q 4.854025634765626 0.0044999999999997264 4.887025634765625 0.0029999999999998916 Q 4.920025634765626 0.0014999999999998348 4.947025634765626 -2.220446049250313e-16 L 5.527525634765626 0.7154999999999998 L 5.527525634765626 0.24599999999999977 Q 5.527525634765626 0.16349999999999987 5.518525634765625 0.11924999999999986 Q 5.509525634765626 0.07499999999999984 5.478775634765626 0.05549999999999988 Q 5.448025634765625 0.03599999999999981 5.3820256347656255 0.029999999999999805 L 5.3820256347656255 -2.220446049250313e-16 Q 5.410525634765626 0.0014999999999998348 5.457025634765626 0.0029999999999998916 Q 5.503525634765626 0.0044999999999997264 5.544025634765625 0.0044999999999997264 Q 5.580025634765626 0.0044999999999997264 5.615275634765625 0.0029999999999998916 Q 5.650525634765626 0.0014999999999998348 5.674525634765626 -2.220446049250313e-16 M 6.754502929687501 -2.220446049250313e-16 L 6.754502929687501 0.028499999999999748 Q 6.706502929687501 0.0389999999999997 6.6517529296875 0.07049999999999979 Q 6.597002929687501 0.10199999999999987 6.5370029296875005 0.17249999999999976 L 6.2550029296875005 0.5084999999999998 L 6.342002929687501 0.3839999999999998 L 6.6990029296875 0.9404999999999999 Q 6.7200029296875 0.9749999999999999 6.7440029296875 0.9959999999999998 Q 6.7680029296875 1.017 6.807002929687501 1.0319999999999998 L 6.807002929687501 1.0619999999999998 Q 6.754502929687501 1.059 6.690002929687501 1.05825 Q 6.6255029296875 1.0574999999999999 6.573002929687501 1.0574999999999999 Q 6.541502929687501 1.0574999999999999 6.496502929687501 1.05825 Q 6.451502929687501 1.059 6.382502929687501 1.0619999999999998 L 6.382502929687501 1.0319999999999998 Q 6.4440029296875005 1.029 6.456752929687501 1.0147499999999998 Q 6.469502929687501 1.0004999999999997 6.445502929687501 0.9644999999999998 L 6.2280029296875 0.6119999999999999 Q 6.2070029296875004 0.5774999999999999 6.190502929687501 0.5602499999999998 Q 6.174002929687501 0.5429999999999998 6.1575029296875 0.5362499999999998 Q 6.141002929687501 0.5294999999999999 6.1140029296875005 0.5279999999999998 L 6.1140029296875005 0.49649999999999983 Q 6.1800029296875 0.4949999999999998 6.2317529296875005 0.4604999999999998 Q 6.283502929687501 0.4259999999999998 6.3450029296875 0.3554999999999998 L 6.433502929687501 0.24899999999999978 Q 6.4905029296875005 0.18149999999999977 6.500252929687501 0.1327499999999998 Q 6.5100029296875 0.08399999999999985 6.480752929687501 0.05699999999999972 Q 6.451502929687501 0.029999999999999805 6.3915029296875 0.028499999999999748 L 6.3915029296875 -2.220446049250313e-16 Q 6.447002929687501 0.0014999999999998348 6.497252929687501 0.0029999999999998916 Q 6.547502929687501 0.0044999999999997264 6.613502929687501 0.0044999999999997264 Q 6.7005029296875005 0.0044999999999997264 6.754502929687501 -2.220446049250313e-16 M 6.235502929687501 -2.220446049250313e-16 L 6.235502929687501 0.029999999999999805 Q 6.187502929687501 0.03149999999999986 6.1627529296875005 0.04124999999999979 Q 6.1380029296875005 0.05099999999999971 6.130502929687501 0.07724999999999982 Q 6.123002929687501 0.10349999999999981 6.123002929687501 0.1589999999999998 L 6.123002929687501 0.9029999999999998 Q 6.123002929687501 0.9569999999999999 6.1312529296875 0.9839999999999999 Q 6.1395029296875006 1.011 6.163502929687501 1.0199999999999998 Q 6.187502929687501 1.029 6.235502929687501 1.0319999999999998 L 6.235502929687501 1.0619999999999998 Q 6.195002929687501 1.059 6.1335029296875 1.05825 Q 6.072002929687501 1.0574999999999999 6.009002929687501 1.0574999999999999 Q 5.937002929687501 1.0574999999999999 5.873252929687501 1.05825 Q 5.8095029296875005 1.059 5.772002929687501 1.0619999999999998 L 5.772002929687501 1.0319999999999998 Q 5.820002929687501 1.029 5.844002929687501 1.0199999999999998 Q 5.868002929687501 1.011 5.8762529296875 0.9839999999999999 Q 5.884502929687501 0.9569999999999999 5.884502929687501 0.9029999999999998 L 5.884502929687501 0.1589999999999998 Q 5.884502929687501 0.10349999999999981 5.8762529296875 0.07724999999999982 Q 5.868002929687501 0.05099999999999971 5.843252929687501 0.04124999999999979 Q 5.818502929687501 0.03149999999999986 5.772002929687501 0.029999999999999805 L 5.772002929687501 -2.220446049250313e-16 Q 5.8095029296875005 0.0014999999999998348 5.873252929687501 0.0029999999999998916 Q 5.937002929687501 0.0044999999999997264 6.009002929687501 0.0044999999999997264 Q 6.072002929687501 0.0044999999999997264 6.1335029296875 0.0029999999999998916 Q 6.195002929687501 0.0014999999999998348 6.235502929687501 -2.220446049250313e-16" fill="#173054" fill-rule="nonzero"></path></g><g></g><g clip-path="url(#SvgjsClipPath1002)"><g clip-path="url(#SvgjsClipPath1000eff216ab-59e5-4115-b9fb-cdf970a6fe0e)"><path d=" M -0.875996162909649 -0.025917498378350556 L -1.5363063092380091 -0.024899947370877903 C -1.5363063092380091 -0.024899947370877903 -1.6051211541154748 0.0014475245295940409 -1.5938287043302186 0.09709258643665872 L -0.9437603272119586 0.09709258643665872 C -0.9437603272119586 0.09709258643665872 -0.9568938344014344 -0.018155713949255928 -0.875996162909649 -0.025917498378350556 Z" fill="#3a868f" transform="matrix(1,0,0,1,0,0)" fill-rule="nonzero"></path></g><g clip-path="url(#SvgjsClipPath1000eff216ab-59e5-4115-b9fb-cdf970a6fe0e)"><path d=" M -1.4726975392824955 -0.025917498378350556 L -0.7759306701143072 -0.025917498378350556 L -0.7754573905759485 0.47507255695206196 L -0.7753580018728914 0.5968568477627203 L -0.775334337895973 0.6288079493973676 L -1.3137466063244687 0.6288079493973676 C -1.3137466063244687 0.6288079493973676 -1.3007645485872703 0.6977269157732721 -1.3729065486194032 0.7102451595628811 C -1.3782138276320741 0.7110801366715409 -1.3835670914489748 0.711590648691871 -1.3889365265836382 0.7117738524717835 C -1.395438617912565 0.7120224575536866 -1.401944603898002 0.7113952594919639 -1.408279461316387 0.7099091310906472 C -1.431797530144853 0.7047938309710794 -1.4514343651048294 0.6887073273228874 -1.4610785266157713 0.6666561140799752 C -1.4671669206824351 0.6533895257477784 -1.4702627392834988 0.6389461424101344 -1.4701465625707382 0.6243496561460229 L -1.4706198421090968 0.47510095372436467 Z" fill="#225777" transform="matrix(1,0,0,1,0,0)" fill-rule="nonzero"></path></g><g clip-path="url(#SvgjsClipPath1000eff216ab-59e5-4115-b9fb-cdf970a6fe0e)"><path d=" M -1.3395640051419784 0.6877833126723407 C -1.3249943464373004 0.6746342008917089 -1.3164988114433265 0.6560539641078695 -1.3160846072439636 0.6364324827603384 L -1.315739113180964 0.2554045920178996 C -1.3150859874180276 0.2263783579303138 -1.295818777411414 0.2062639775500367 -1.2428020035243856 0.20500505397800137 C -1.119725659574006 0.2020849192263231 -1.1859327341951122 0.23605219169438157 -1.1851470901614374 0.2554045920178996 L -0.8844631338509016 0.2554045920178996 L -0.8852677090661117 0.6545259595118202 C -0.8796451481504012 0.7009073542710481 -0.9282793535122211 0.711418892818012 -0.9282793535122211 0.711418892818012 L -1.3829022124695576 0.7118448444025346 C -1.3667318916438882 0.7074249207802835 -1.3518657084306969 0.6991711613114769 -1.339564005141975 0.6877833126723407 Z" fill="#3a868f" transform="matrix(1,0,0,1,0,0)" fill-rule="nonzero"></path></g><g clip-path="url(#SvgjsClipPath1000eff216ab-59e5-4115-b9fb-cdf970a6fe0e)"><path d=" M -1.2045610168249414 0.20500505397799965 L -0.5077941476567531 0.20500505397799965 L -0.5073208681183945 0.8511499437232606 L -0.5072262122107223 0.9729295017385347 L -0.5072025482338038 1.004880603373183 L -1.045605351071531 1.004880603373183 C -1.045605351071531 1.004880603373183 -1.032618560538946 1.073799569749088 -1.1047652933664642 1.0863225463340789 C -1.110071359201628 1.0871537317206474 -1.1154229132746276 1.0876626509207377 -1.1207905385353156 1.0878465064475962 C -1.1272927130107242 1.0880979943009244 -1.133799084933411 1.087470759033604 -1.1401334732680661 1.0859817850664608 C -1.1636526238526055 1.0808717804632406 -1.1832909901257396 1.0647857827038374 -1.1929325385674487 1.042733500851173 C -1.1990229461373483 1.0294657369223288 -1.202120385724959 1.0150207134934102 -1.2020053073178008 1.0004223101218355 L -1.2024785868561576 0.8511783404955615 Z" fill="#173054" transform="matrix(1,0,0,1,0,0)" fill-rule="nonzero"></path></g><g clip-path="url(#SvgjsClipPath1000eff216ab-59e5-4115-b9fb-cdf970a6fe0e)"><path d=" M -1.1190867321972233 1.085906060340323 L -0.4587718530734781 1.0848885093328502 C -0.4587718530734781 1.0848885093328502 -0.3899570081960124 1.0585410374323783 -0.4012541907766538 0.962900708320697 L -1.0513225678949139 0.962900708320697 C -1.0513225678949139 0.962900708320697 -1.038189060705438 1.0781253447296932 -1.1190867321972233 1.085906060340323 Z" fill="#3a868f" transform="matrix(1,0,0,1,0,0)" fill-rule="nonzero"></path></g><g clip-path="url(#SvgjsClipPath1000eff216ab-59e5-4115-b9fb-cdf970a6fe0e)"><path d=" M -1.0877272299855232 0.31635353096783153 L -0.912613800792521 0.31635353096783153 L -0.912613800792521 0.3494830986529941 L -1.0877272299855232 0.3494830986529941 Z" fill="#ececd9" transform="matrix(1,0,0,1,0,0)" fill-rule="nonzero"></path></g><g clip-path="url(#SvgjsClipPath1000eff216ab-59e5-4115-b9fb-cdf970a6fe0e)"><path d=" M -0.9410105730940889 0.4914669601608338 L -0.7706299392846814 0.4914669601608338 L -0.7706299392846814 0.5245965278459965 L -0.9410105730940889 0.5245965278459965 Z" fill="#ececd9" transform="matrix(1,0,0,1,0,0)" fill-rule="nonzero"></path></g><g clip-path="url(#SvgjsClipPath1000eff216ab-59e5-4115-b9fb-cdf970a6fe0e)"><path d=" M -1.0025369130808195 0.7565035016421346 L -0.8274234838878172 0.7565035016421346 L -0.8274234838878172 0.7896330693272972 L -1.0025369130808195 0.7896330693272972 Z" fill="#ececd9" transform="matrix(1,0,0,1,0,0)" fill-rule="nonzero"></path></g><g clip-path="url(#SvgjsClipPath1000eff216ab-59e5-4115-b9fb-cdf970a6fe0e)"><path d=" M -1.092460025369118 0.8464266139304331 L -0.9173465961761157 0.8464266139304331 L -0.9173465961761157 0.8795561816155957 L -1.092460025369118 0.8795561816155957 Z" fill="#ececd9" transform="matrix(1,0,0,1,0,0)" fill-rule="nonzero"></path></g><g clip-path="url(#SvgjsClipPath1000eff216ab-59e5-4115-b9fb-cdf970a6fe0e)"><path d=" M -1.092460025369118 0.5861228678327269 L -0.9173465961761157 0.5861228678327269 L -0.9173465961761157 0.6192524355178896 L -1.092460025369118 0.6192524355178896 Z" fill="#ececd9" transform="matrix(1,0,0,1,0,0)" fill-rule="nonzero"></path></g><g clip-path="url(#SvgjsClipPath1000eff216ab-59e5-4115-b9fb-cdf970a6fe0e)"><path d=" M -0.9978041176972248 0.6713131847374307 L -0.7043708039143561 0.6713131847374307 L -0.7043708039143561 0.7044427524225934 L -0.9978041176972248 0.7044427524225934 Z" fill="#ececd9" transform="matrix(1,0,0,1,0,0)" fill-rule="nonzero"></path></g><g clip-path="url(#SvgjsClipPath1000eff216ab-59e5-4115-b9fb-cdf970a6fe0e)"><path d=" M -1.0025369130808195 0.40627664325613 L -0.6333788731604362 0.40627664325613 L -0.6333788731604362 0.43940621094129256 L -1.0025369130808195 0.43940621094129256 Z" fill="#ececd9" transform="matrix(1,0,0,1,0,0)" fill-rule="nonzero"></path></g></g></g><defs><clipPath id="SvgjsClipPath1002"><path d=" M -1.5950828951068705 -0.025917498378350556 h 1.1950828951068704 v 1.113834996756701 h -1.1950828951068704 Z"></path></clipPath><clipPath id="SvgjsClipPath1000eff216ab-59e5-4115-b9fb-cdf970a6fe0e"><path d=" M -1.5950828951068705 -0.025917498378350556 L -0.40000000000000013 -0.025917498378350556 L -0.40000000000000013 1.0879174983783504 L -1.5950828951068705 1.0879174983783504 Z"></path></clipPath></defs></svg>